<svg width="71" height="20" xmlns="http://www.w3.org/2000/svg" xmlns:xlink="http://www.w3.org/1999/xlink">
    <defs>
        <path id="a" d="M0 0h12.618v3.828H0z"/>
        <path id="c" d="M0 0h11.631v14.743H0z"/>
        <path id="e" d="M0 0h10.687v14.743H0z"/>
    </defs>
    <g fill="none" fill-rule="evenodd">
        <g transform="translate(58.104 16.082)">
            <mask id="b" fill="#fff">
                <use xlink:href="#a"/>
            </mask>
            <path d="M12.257.193c-.943.457-1.93.799-2.932 1.015-1.994.43-4.119.439-6.103-.006C2.242.982 1.281.64.363.182L0 0v2.026l.106.072c.428.288.907.546 1.425.764.515.217 1.052.4 1.596.542a12.938 12.938 0 0 0 3.248.424 11.44 11.44 0 0 0 3.169-.451 12.865 12.865 0 0 0 2.955-1.271l.119-.07V.018l-.361.175z" fill="#FF3D46" mask="url(#b)"/>
        </g>
        <g>
            <mask id="d" fill="#fff">
                <use xlink:href="#c"/>
            </mask>
            <path d="M5.63 0C4.364 0 3.42.307 2.793.92A3.014 3.014 0 0 0 2 2.238a3.66 3.66 0 0 0-.144 1.045v.648H0v1.987h1.855v8.825h3.099V5.918h2.139V3.931h-2.14v-.46c0-.445.091-.763.274-.951.18-.188.482-.282.903-.282h5.501V0h-6z" fill="#00165F" mask="url(#d)"/>
        </g>
        <path d="M11 3.91v11H9.31c-.724 0-1.31-.59-1.31-1.319V3.91h3zM16.783 3.2v1.491h.062c.371-.62.852-1.073 1.443-1.357a4.162 4.162 0 0 1 1.815-.424c.783 0 1.426.107 1.928.32.502.215.897.513 1.186.892.289.38.49.843.608 1.388.116.546.175 1.15.175 1.812v6.588h-2.928V7.861c0-.883-.137-1.543-.412-1.978-.275-.435-.763-.653-1.464-.653-.798 0-1.375.239-1.732.715-.358.476-.537 1.26-.537 2.351v5.614H14V3.2h2.783z" fill="#00165F"/>
        <g transform="translate(27.304)">
            <mask id="f" fill="#fff">
                <use xlink:href="#e"/>
            </mask>
            <path d="M2.97 0V7.82l3.743-3.89h3.513L6.148 7.905l4.539 6.838H7.09l-2.97-4.83-1.15 1.108v3.722H1.298A1.299 1.299 0 0 1 0 13.445V0h2.97z" fill="#00165F" mask="url(#f)"/>
        </g>
        <path d="M45.196 5.888c-.362-.412-.913-.618-1.653-.618-.483 0-.884.085-1.204.254a2.299 2.299 0 0 0-1.173 1.423c-.078.28-.124.53-.138.75h4.925c-.142-.794-.394-1.397-.757-1.81m-3.422 6.001c.455.456 1.109.684 1.962.684.61 0 1.137-.158 1.578-.475.44-.316.71-.65.81-1.003h2.665c-.426 1.368-1.08 2.346-1.961 2.934-.882.588-1.948.882-3.199.882-.867 0-1.649-.143-2.345-.43a4.868 4.868 0 0 1-1.77-1.224 5.547 5.547 0 0 1-1.12-1.898C38.131 10.623 38 9.814 38 8.932c0-.853.135-1.647.405-2.382a5.611 5.611 0 0 1 1.151-1.908 5.405 5.405 0 0 1 1.781-1.269c.69-.309 1.453-.463 2.292-.463.938 0 1.755.187 2.452.562.697.375 1.27.88 1.717 1.511a6.32 6.32 0 0 1 .97 2.163c.199.808.27 1.654.213 2.536h-7.953c.042 1.015.291 1.75.746 2.206M53.74 3.2c.054 0 .098.043.098.097v1.892h.042a3.727 3.727 0 0 1 1.388-1.647c.307-.2.637-.355.987-.466.35-.11.715-.166 1.094-.166.176 0 .369.028.579.084.042.01.072.05.072.093v2.546c0 .059-.054.105-.114.095a6.088 6.088 0 0 0-.958-.083c-.547 0-1.01.09-1.388.269-.378.18-.683.425-.914.735a2.928 2.928 0 0 0-.494 1.088 5.811 5.811 0 0 0-.147 1.347v3.542c0 .71-.583 1.284-1.303 1.284h-1.584a.097.097 0 0 1-.098-.097V3.297c0-.054.044-.097.098-.097h2.642zM63.017 11.788c.132.244.302.442.511.596.209.155.449.269.72.342.272.074.554.11.846.11.209 0 .428-.025.657-.077.23-.05.44-.132.627-.242.188-.11.344-.257.47-.442.125-.184.188-.415.188-.694 0-.47-.296-.824-.888-1.06-.592-.234-1.416-.47-2.473-.705a13.752 13.752 0 0 1-1.264-.364 4.202 4.202 0 0 1-1.096-.551 2.632 2.632 0 0 1-.772-.86c-.195-.346-.292-.769-.292-1.27 0-.734.135-1.337.407-1.808a3.08 3.08 0 0 1 1.075-1.114 4.562 4.562 0 0 1 1.503-.573 8.794 8.794 0 0 1 1.712-.166c.584 0 1.151.06 1.701.177.55.118 1.04.316 1.472.595.432.28.79.65 1.075 1.114.285.463.456 1.048.512 1.753h-2.819c-.041-.602-.257-1.01-.647-1.224-.39-.213-.849-.32-1.378-.32-.167 0-.348.011-.543.034-.194.022-.372.07-.532.143-.16.074-.296.18-.407.32-.112.14-.167.328-.167.562 0 .28.097.508.292.684.196.176.45.32.763.43.312.11.67.21 1.075.298.403.088.814.184 1.231.287.432.103.853.228 1.263.375.41.147.776.342 1.096.585.32.242.578.544.773.904.195.36.292.805.292 1.335 0 .75-.143 1.378-.428 1.885a3.538 3.538 0 0 1-1.117 1.224c-.459.31-.985.527-1.576.651a8.71 8.71 0 0 1-3.643-.01 4.701 4.701 0 0 1-1.597-.663 3.678 3.678 0 0 1-1.148-1.224c-.3-.507-.463-1.143-.491-1.907h2.819c0 .338.065.628.198.87" fill="#00165F"/>
    </g>
</svg>
