<svg width="113" height="36" xmlns="http://www.w3.org/2000/svg" xmlns:xlink="http://www.w3.org/1999/xlink">
    <defs>
        <path id="a" d="M0 0h113v36H0z"/>
    </defs>
    <g fill="none" fill-rule="evenodd">
        <mask id="b" fill="#fff">
            <use xlink:href="#a"/>
        </mask>
        <path d="M109.766 1.814c-8.444 4.3-17.28 7.513-26.26 9.548-17.853 4.037-36.884 4.13-54.646-.056-8.78-2.07-17.394-5.3-25.604-9.601L0 0v19.055l.948.673c3.833 2.716 8.126 5.135 12.764 7.19a103 103 0 0 0 14.292 5.097 110.159 110.159 0 0 0 14.82 3.005c4.959.65 9.76.98 14.27.98 9.537 0 19.082-1.427 28.371-4.241a112.458 112.458 0 0 0 26.469-11.953l1.066-.66V.167l-3.234 1.648z" fill="#FF3D46" mask="url(#b)"/>
    </g>
</svg>
