<svg width="29" height="29" xmlns="http://www.w3.org/2000/svg">
    <defs>
        <filter id="a">
            <feColorMatrix in="SourceGraphic" values="0 0 0 0 1.000000 0 0 0 0 1.000000 0 0 0 0 1.000000 0 0 0 1.000000 0"/>
        </filter>
    </defs>
    <g transform="translate(-65 -16)" filter="url(#a)" fill="none" fill-rule="evenodd">
        <circle cx="14.026" cy="14.026" r="13.276" stroke="#FFF" stroke-width="1.5" transform="translate(65 16)"/>
        <path d="M88.09 23.658a.3.3 0 0 0-.224-.21l-1.845-.417-.417-1.846a.3.3 0 0 0-.507-.146l-2.122 2.123a8.588 8.588 0 1 0 2.916 2.915l2.123-2.123a.301.301 0 0 0 .076-.296zm-1.567 6.857a7.985 7.985 0 1 1-3.987-6.913l-.975.975a.299.299 0 0 0-.023.03 6.636 6.636 0 1 0 2.906 2.91.297.297 0 0 0 .032-.025l.975-.975a7.958 7.958 0 0 1 1.072 3.998zm-2.793-3.048a6.016 6.016 0 1 1-2.145-2.147l.317 1.405-.304.304a4.65 4.65 0 1 0 .425.426l.305-.304 1.402.316zm-3.898 3.048a1.3 1.3 0 1 1-.619-1.102l-.889.89a.301.301 0 1 0 .426.425l.89-.89c.125.204.192.438.192.677zm-.185-1.535a1.905 1.905 0 1 0 .426.426l1.524-1.525a4.046 4.046 0 1 1-.426-.425l-1.524 1.524zm5.651-3.162-1.13 1.13-.17-.038-.006-.002-1.508-.34-.38-1.683 3.034-3.034.338 1.498a.301.301 0 0 0 .228.227l1.498.339-1.904 1.903z" fill="#000" fill-rule="nonzero"/>
    </g>
</svg>
