<svg width="29" height="29" xmlns="http://www.w3.org/2000/svg">
    <defs>
        <filter id="a">
            <feColorMatrix in="SourceGraphic" values="0 0 0 0 1.000000 0 0 0 0 1.000000 0 0 0 0 1.000000 0 0 0 1.000000 0"/>
        </filter>
        <filter id="b">
            <feColorMatrix in="SourceGraphic" values="0 0 0 0 1.000000 0 0 0 0 0.239216 0 0 0 0 0.274510 0 0 0 1.000000 0"/>
        </filter>
        <filter id="c">
            <feColorMatrix in="SourceGraphic" values="0 0 0 0 0.847000 0 0 0 0 0.847000 0 0 0 0 0.847000 0 0 0 1.000000 0"/>
        </filter>
    </defs>
    <g transform="translate(-231 -16)" filter="url(#a)" fill="none" fill-rule="evenodd">
        <g filter="url(#b)" transform="translate(231 16)">
            <circle cx="14.026" cy="14.026" r="13.276" stroke="#FFF" stroke-width="1.5"/>
        </g>
        <g filter="url(#c)" transform="translate(231 16)">
            <g fill="#231F20" fill-rule="nonzero">
                <path d="M14.352 5.871c-3.231 0-5.871 2.474-5.871 5.501 0 1.583.74 3.106 1.985 4.135.93.87.845 2.73.824 2.75 0 .1.021.179.106.258.063.06.169.099.253.099h5.386c.105 0 .19-.04.253-.1a.363.363 0 0 0 .106-.256c0-.02-.106-1.88.823-2.75l.064-.06c1.225-1.049 1.943-2.533 1.943-4.076 0-3.027-2.64-5.5-5.872-5.5zm3.375 9.104c-.021.02-.063.059-.063.078-.818.82-.964 2.167-.985 2.811h-4.632c-.02-.644-.168-2.05-1.048-2.889-1.11-.898-1.76-2.205-1.76-3.591 0-2.635 2.284-4.763 5.113-4.763 2.83 0 5.114 2.128 5.114 4.763 0 1.386-.628 2.693-1.74 3.591z"/>
                <path d="M14.144 7.933c-.19 0-.36.154-.36.328 0 .174.17.328.36.328 2.134 0 3.846 1.583 3.846 3.513 0 .174.169.328.36.328.19 0 .359-.154.359-.328.02-2.297-2.03-4.17-4.565-4.17zM16.688 19.363h-4.672c-.484 0-.883.34-.883.75s.4.75.883.75h4.651c.505-.018.905-.34.905-.75s-.4-.75-.884-.75zm-.019 1.125h-4.613c-.083 0-.166-.07-.166-.188 0-.117.063-.187.166-.187h4.592c.084 0 .167.07.167.187 0 .117-.063.188-.146.188zM15.953 21.612h-3.201c-.472 0-.862.339-.862.75 0 .41.39.749.862.749h3.2c.473 0 .863-.34.863-.75 0-.428-.39-.75-.862-.75zm-.055 1.124h-3.092c-.079 0-.158-.07-.158-.187 0-.117.06-.188.158-.188h3.092c.08 0 .159.07.159.188 0 .117-.08.187-.159.187z"/>
            </g>
        </g>
    </g>
</svg>
