<svg width="29" height="29" xmlns="http://www.w3.org/2000/svg">
    <defs>
        <filter id="a">
            <feColorMatrix in="SourceGraphic" values="0 0 0 0 1.000000 0 0 0 0 1.000000 0 0 0 0 1.000000 0 0 0 1.000000 0"/>
        </filter>
    </defs>
    <g transform="translate(-397 -16)" filter="url(#a)" fill="none" fill-rule="evenodd">
        <circle cx="14.026" cy="14.026" r="13.276" stroke="#FFF" stroke-width="1.5" transform="translate(397 16)"/>
        <g fill="#000" fill-rule="nonzero">
            <path d="M408.482 28.925h5.434a.943.943 0 0 0 .75-.37.963.963 0 0 0 .174-.824l-.406-1.643a2.272 2.272 0 0 0-1.512-1.626 2.09 2.09 0 0 0 .346-1.154 2.081 2.081 0 0 0-2.07-2.089c-1.14 0-2.068.937-2.068 2.089 0 .426.128.823.346 1.154a2.272 2.272 0 0 0-1.512 1.626l-.406 1.643a.963.963 0 0 0 .174.825c.181.235.455.37.75.37zm2.717-6.665c.572 0 1.037.47 1.037 1.048 0 .578-.465 1.047-1.037 1.047-.572 0-1.037-.47-1.037-1.047 0-.578.465-1.048 1.037-1.048zm-2.235 4.08a1.232 1.232 0 0 1 1.195-.943h2.08c.566 0 1.057.388 1.194.943l.382 1.544h-5.232l.381-1.544z"/>
            <path d="M419.993 26.458a1.574 1.574 0 0 0-3.147.004v2.507a1.516 1.516 0 0 0-1.177.444l-1.353 1.352a.061.061 0 0 1-.05.017.512.512 0 0 0-.028-.002l-.607-.037a1.661 1.661 0 0 0-1.356.48l-.836.836c-.087.087-.167.18-.24.277a2.617 2.617 0 0 0-.24-.277l-.836-.836a1.661 1.661 0 0 0-1.357-.48l-.606.037a.551.551 0 0 0-.028.002.06.06 0 0 1-.05-.017l-1.353-1.353a1.516 1.516 0 0 0-1.177-.443v-2.507a1.573 1.573 0 0 0-3.147-.004l-.013 5.686a2.26 2.26 0 0 0 .658 1.594l3.298 3.297v.939c0 .474.386.86.86.86h3.647a.855.855 0 0 0 .344-.073.855.855 0 0 0 .344.072h3.647a.86.86 0 0 0 .86-.86v-.938l3.298-3.297c.42-.42.66-1 .658-1.594l-.013-5.686zm-1.375 6.55-3.45 3.448a.516.516 0 0 0-.15.365v.98h-3.303v-3.918c0-.413.161-.802.453-1.094l.837-.836a.634.634 0 0 1 .552-.18l.608.036c.327.033.648-.081.881-.315l1.353-1.352a.494.494 0 0 1 .698.697l-1.928 1.928a.516.516 0 1 0 .73.73l1.927-1.928c.289-.288.447-.671.447-1.078 0-.383-.14-.744-.395-1.025v-3.004c0-.158.065-.303.184-.407a.543.543 0 0 1 .899.406l.013 5.686c0 .32-.129.634-.356.861zm-14.838 0a1.222 1.222 0 0 1-.356-.861l.013-5.686a.543.543 0 0 1 .899-.406.534.534 0 0 1 .184.407v3.004a1.514 1.514 0 0 0-.395 1.025c0 .407.158.79.446 1.078l1.928 1.927a.516.516 0 0 0 .73-.73l-1.928-1.927a.494.494 0 0 1 .698-.697l1.353 1.352c.233.234.553.348.881.315l.608-.036.028-.003a.635.635 0 0 1 .524.183l.836.836c.293.292.454.681.454 1.094v3.919h-3.303v-.98a.516.516 0 0 0-.151-.366l-3.45-3.448z"/>
        </g>
    </g>
</svg>
