<svg xmlns="http://www.w3.org/2000/svg" width="100" height="16" viewBox="0 0 100 16">
    <g fill="none" fill-rule="evenodd">
        <g fill="#FF3D46">
            <g>
                <path d="M8 12L3.298 14.472 4.196 9.236.392 5.528 5.649 4.764 8 0 10.351 4.764 15.608 5.528 11.804 9.236 12.702 14.472zM29 12L24.298 14.472 25.196 9.236 21.392 5.528 26.649 4.764 29 0 31.351 4.764 36.608 5.528 32.804 9.236 33.702 14.472zM50 12L45.298 14.472 46.196 9.236 42.392 5.528 47.649 4.764 50 0 52.351 4.764 57.608 5.528 53.804 9.236 54.702 14.472zM71 12L66.298 14.472 67.196 9.236 63.392 5.528 68.649 4.764 71 0 73.351 4.764 78.608 5.528 74.804 9.236 75.702 14.472zM92 12L87.298 14.472 88.196 9.236 84.392 5.528 89.649 4.764 92 0 94.351 4.764 99.608 5.528 95.804 9.236 96.702 14.472z" transform="translate(-475 -2823) translate(475 2823)"/>
            </g>
        </g>
    </g>
</svg>
